<svg xmlns="http://www.w3.org/2000/svg" viewBox="0 0 512 512">
  <defs/>
  <path fill="#9af9ff" d="M496 256a239 239 0 11-480 0A239 239 0 01256 16a239 239 0 01240 240z"/>
  <path fill="#98d7ce" d="M496 256c0 28-5 55-14 80H360a40 40 0 01-40-40c0-22 18-40 40-40h32a40 40 0 000-80 40 40 0 01-40-40c0-18 12-33 28-38l12-2h43c38 42 61 99 61 160zM128 264a40 40 0 0040 40 40 40 0 0140 40c0 22-18 40-40 40H53a239 239 0 01-9-240h156a40 40 0 0140 40c0 22-18 40-40 40h-32c-22 0-40 18-40 40z"/>
  <path fill="#84c3ba" d="M496 256c0 28-5 55-14 80h-56a239 239 0 00-46-238l12-2h43c38 42 61 99 61 160z"/>
  <path fill="#86effd" d="M228 18a239 239 0 01207 78h-43l-12 2-1-2c-38-43-91-71-151-78zM482 336a240 240 0 01-254 158c92-10 168-73 198-158z"/>
  <path d="M437 75a254 254 0 00-362 0 254 254 0 000 362 254 254 0 00362 0 254 254 0 000-362zm33 246l-110-1a24 24 0 01-24-24c0-13 11-24 24-24h32a56 56 0 000-112 24 24 0 01-24-24c0-13 11-24 24-24l36 1a223 223 0 0142 208zM54 159l146 1a24 24 0 0124 24c0 13-11 24-24 24h-32a56 56 0 000 112 24 24 0 0124 24c0 13-11 24-24 24l-106-1a223 223 0 01-8-208zm202 321c-69 0-131-31-172-81l83 1a56 56 0 001-112 24 24 0 01-24-24c0-14 11-24 24-24h32a56 56 0 000-112l-127-1a224 224 0 01322-47h-2a56 56 0 00-1 112 24 24 0 0124 25c0 13-11 23-24 23h-32a56 56 0 000 112l98 1a224 224 0 01-202 127z"/>
</svg>